<svg id="Слой_1" data-name="Слой 1" xmlns="http://www.w3.org/2000/svg" viewBox="0 0 1585.18 477.53">
  <defs>
    <style>
      .cls-1 {
        fill: #bbb;
      }
    </style>
  </defs>
  <title>exoyexoyexoyexoy</title>
  <g id="layer101">
    <path class="cls-1" d="M209.43,479.67c-8.33-.49-16.32-1.35-20.59-2-9.57-1.51-33.06-8.37-51.72-17.3-59.69-28.65-100.86-76.35-124-144L8.14,301.79,8,244.5l-.13-57.3,3.86-11.32C27.33,129.78,44,101.66,72.37,73.28,105.68,40,138.59,19.72,173.9,10.66,187.83,5.48,239.37.18,274.29,6.05c18.76,4,19,3.54,33.38,8.34,30.65,10.13,53.3,24,82.88,50.63,44.37,40,74.48,103.4,77.15,162.16.93,19.72,0,23.45-6.27,25.45-5.59,1.73-244.1,0-297-2.14-39.71-1.73-44.91-2.53-46.1-7.32s0-6.8,5.06-9.6c4.13-2.26,9.86-2.4,83.67-2.4,43.57,0,115.39.54,159.63,1.2l80.21,1.2v-3.86c0-6.93-4.13-33.84-6.8-44.1-4.93-19.72-19.45-50.9-30.38-65.69C388.68,91.4,362,67,335.65,52.23,306.47,36,279.56,28.51,243.72,27.05c-33.71-1.33-59,3.06-87.68,15.19-27.71,11.59-47,24.91-70.22,48.23C56.91,119.65,39.06,152.3,28.93,194.53c-2.8,11.86-3.46,18.26-4,42.11-.8,30.64.27,43.17,5.6,63.55,9.86,37.58,29.71,71.42,59.29,100.87s64,47.7,108.59,57.56c11.06,2.4,62.09,2.4,74.62-.14,5.2-.93,17.32-4.39,27.18-7.59,42.5-13.86,74.22-37.44,108.19-80.48,10.53-13.46,18.39-20,23.85-20,4.67,0,6.66,2.26,6.66,7.46,0,8-29.84,48.23-48.23,65.15-24.52,22.39-66.22,44.77-96.33,51.7-11.28,3.92-51.57,6.95-63.29,6.13C227.06,480.74,217.16,480.61,209.43,479.67Z" transform="translate(-7.88 -3.48)"/>
    <path class="cls-1" d="M456.5,475.41c-3.46-3.47-1.86-7.6,8.66-24.12,6.67-10.13,25.32-36.64,37-52.23,20-26.65,80.62-109.26,93.67-127.38C613.46,246.9,614.39,245.3,612,241c-2.54-4.79-21.32-30.51-70.36-96.46-24.51-32.91-55.29-74.88-68.35-93C452.11,22,449.57,17.85,449.57,13.19V7.86l7.6.4c7.59.4,7.73.53,14.12,8.4,6.13,7.59,32.38,42.23,106.86,141.23,41.17,54.76,49.83,66,51.3,66,2.4,0,17.32-19.19,90.6-116.59C791.87,11.73,798.53,4.4,804.8,13.86c4.53,7.06-.4,14.39-91.41,136.7-61.82,83-66.62,89.67-66.62,92.74,0,4.8,20.65,34.24,80.48,115.12,10.66,14.26,32,43.57,47.43,65.16,25.45,35.57,28.12,39.7,27.72,44-.27,3.73-1.2,5.06-3.87,6-7.72,2.67-15-6-83.8-97.13-58.5-77.68-83.55-109.26-86.61-109.26-2.13,0-2.27.27-50.63,65.29-61.83,83.14-69.42,93.27-81,108.59-17.19,22.52-24,30.51-28.65,33.44C462.9,477.41,458.77,477.67,456.5,475.41Z" transform="translate(-7.88 -3.48)"/>
    <path class="cls-1" d="M1250.62,475.41c-2.53-2.54-1.86-7.73,2-14.26,10.79-18.65,52.23-76.61,146.83-205.33,4.53-6.26,8-12.25,7.73-13.45s-19.45-27.18-42.5-58C1274.07,63.69,1245,23.05,1245,17.19c0-3.6,3.59-7.86,6.79-7.86,7.2,0,14.13,8.39,78.48,93.93,64.49,85.81,89.41,117.12,92.47,116.19,2.53-.8,30.65-37.31,78.08-101.53,29.58-40.11,37.71-50.9,48.37-65.29,14.92-19.85,30.91-38.91,34.24-40.64a55.59,55.59,0,0,1,6.13-2.66L1593.05,8l-.53,8.27c-.53,9.59.8,7.32-33.57,55.69-27.45,38.77-66.63,92.74-128.58,177.21-12.53,17.19-33.58,46-46.77,64-95.54,131-114.72,156.56-121.25,161C1257.55,477.27,1253,477.8,1250.62,475.41Z" transform="translate(-7.88 -3.48)"/>
    <path class="cls-1" d="M987.74,470.34c-22.25-2.93-40-8.66-66.36-21.45-24.65-11.86-38-20.78-54.49-36.51-39.44-37.57-61.56-75-71.29-121.25-8.12-38.64-8.26-61-.26-97.93,5.86-27.18,22.51-65,38.64-87.27,34.37-47.7,86.07-79.95,147-91.41,12.66-2.53,20.26-3.06,40.91-2.93,22.25,0,27.45.4,42.37,3.6,43.7,9.06,79.14,26.25,110.86,53.7C1222.11,109.52,1253,178,1253,241.3c0,34.11-10.92,76.48-27.58,107.79a232.61,232.61,0,0,1-105.93,101.27c-26.51,12.52-49.3,18.52-81,21.32C1018.12,473.41,1009.19,473.14,987.74,470.34Zm73.41-21.85c30.12-6.13,60.9-19.45,83.15-35.84,14.65-10.79,36.5-32.38,46.63-46.24,20.12-27.18,36.51-66.35,39.71-95.26,1.73-16.66.53-56.36-2.13-69.95-6.27-30.65-19.32-60.63-37-84.61-9.86-13.33-34.37-37.31-48.1-46.9-38.9-27.45-81-39.31-131.37-37.31-42.11,1.73-72.49,11.19-103.93,32.24-20.92,14-53.83,47.44-67.42,68.49s-22.79,44.77-26.52,68.48c-2.79,17.06-2.79,61-.13,77.55,4.4,27.58,16.26,56.5,33,81,31.85,46.64,89.41,82.35,145.1,90.21C1004.93,452.09,1049.43,451,1061.15,448.49Z" transform="translate(-7.88 -3.48)"/>
  </g>
</svg>
